<svg id="svg" version="1.1" width="400" height="333.53720693170237" viewBox="0 0 400 333.53720693170237" xmlns="http://www.w3.org/2000/svg" xmlns:xlink="http://www.w3.org/1999/xlink" ><g id="svgg"><path id="path0" d="M98.165 36.601 L 0.102 73.158 0.051 186.401 L -0.000 299.643 0.560 299.751 C 0.869 299.810,45.137 307.454,98.933 316.737 L 196.745 333.616 295.036 316.650 C 349.096 307.319,393.406 299.635,393.503 299.575 C 393.807 299.388,393.729 73.482,393.425 73.250 C 392.976 72.908,197.033 -0.001,196.623 0.022 C 196.406 0.033,152.100 16.494,98.165 36.601 M169.630 41.692 C 167.548 69.211,157.137 88.584,141.474 94.083 C 140.624 94.381,118.790 100.428,92.952 107.521 L 45.973 120.418 45.921 138.205 L 45.869 155.993 48.164 155.867 C 62.095 155.101,122.853 153.108,126.357 153.302 C 153.585 154.813,167.813 168.592,169.629 195.209 C 170.023 200.976,169.782 275.325,169.364 277.320 C 165.986 293.416,152.788 300.054,129.969 297.135 C 122.908 296.232,15.900 278.353,15.567 278.021 C 15.266 277.719,17.147 271.181,18.602 267.474 C 22.610 257.261,28.253 250.956,35.474 248.622 C 38.693 247.581,38.517 247.573,80.632 250.647 C 101.488 252.170,118.897 253.415,119.317 253.415 L 120.082 253.415 120.082 225.502 L 120.082 197.588 118.603 197.464 C 115.261 197.181,56.293 194.297,45.464 193.885 C 38.366 193.616,35.817 193.391,33.643 192.841 C 24.691 190.577,18.152 183.151,15.981 172.783 C 15.401 170.018,15.383 113.699,15.961 110.278 C 18.090 97.653,24.299 89.833,36.195 84.791 C 39.647 83.328,32.119 86.005,137.513 48.769 L 169.725 37.388 169.793 38.011 C 169.831 38.354,169.757 40.010,169.630 41.692 M223.297 39.030 C 247.550 48.156,263.615 62.452,266.743 77.693 C 267.459 81.185,267.482 82.416,267.482 117.273 C 267.482 136.310,267.560 151.886,267.655 151.886 C 267.751 151.886,285.729 153.124,307.608 154.638 C 329.486 156.152,347.435 157.390,347.495 157.390 C 347.555 157.390,347.627 139.642,347.655 117.949 L 347.706 78.507 349.706 79.311 C 364.967 85.453,375.401 96.183,377.258 107.645 C 377.731 110.563,377.738 260.047,377.266 262.538 C 375.475 271.979,367.661 279.709,354.842 284.720 C 353.019 285.433,348.054 287.054,347.695 287.054 C 347.645 287.054,347.604 264.898,347.604 237.819 L 347.604 188.583 347.146 188.584 C 346.893 188.584,329.072 189.088,307.543 189.704 C 286.014 190.320,268.193 190.825,267.941 190.825 L 267.482 190.826 267.482 225.972 C 267.482 266.127,267.513 265.369,265.616 271.331 C 260.627 287.012,243.089 299.542,220.540 303.536 L 218.349 303.924 218.349 170.627 L 218.349 37.331 219.372 37.635 C 219.935 37.802,221.701 38.430,223.297 39.030 " stroke="none" fill="#ffffff" fill-rule="evenodd"></path><path id="path1" d="M368.187 91.182 C 369.032 92.083,369.215 92.244,369.215 92.091 C 369.215 92.059,368.779 91.623,368.247 91.123 L 367.278 90.214 368.187 91.182 M370.329 275.076 L 369.317 276.147 370.387 275.135 C 370.976 274.579,371.458 274.097,371.458 274.065 C 371.458 273.913,371.269 274.082,370.329 275.076 " stroke="none" fill="#74b42c" fill-rule="evenodd"></path><path id="path2" d="" stroke="none" fill="#78b424" fill-rule="evenodd"></path><path id="path3" d="" stroke="none" fill="#78b424" fill-rule="evenodd"></path><path id="path4" d="" stroke="none" fill="#78b424" fill-rule="evenodd"></path></g></svg>
